<?xml version="1.0" encoding="utf-8"?>
<svg version="1.1" id="search" xmlns="http://www.w3.org/2000/svg" xmlns:xlink="http://www.w3.org/1999/xlink" x="0px" y="0px"
	 viewBox="0 0 32 32" style="enable-background:new 0 0 32 32;">
<path d="M7.6,5.3c-1.8,1.2-3.1,3.1-3.3,5.3c0,0.2,0.1,0.5,0.4,0.5l0.1,0c0.3,0,0.5-0.2,0.5-0.4c0,0,0,0,0,0c0.2-1.9,1.3-3.6,2.9-4.6
	C8.3,6,8.4,5.7,8.2,5.5C8.1,5.3,7.8,5.2,7.6,5.3z"/>
<path d="M22.5,4.7c-4.9-4.9-12.9-4.9-17.8,0s-4.9,12.9,0,17.8c4.8,4.8,12.5,4.9,17.5,0.3l8.2,8.2l0.7-0.7l-8.2-8.2
	C27.4,17.2,27.3,9.5,22.5,4.7z M5.4,21.8c-4.5-4.5-4.5-11.9,0-16.4s11.9-4.5,16.4,0s4.5,11.9,0,16.4c0,0,0,0,0,0
	C17.3,26.4,9.9,26.4,5.4,21.8L5.4,21.8z"/>
</svg>
